<?xml version="1.0" standalone="no"?>
<!DOCTYPE svg PUBLIC "-//W3C//DTD SVG 20010904//EN"
 "http://www.w3.org/TR/2001/REC-SVG-20010904/DTD/svg10.dtd">
<svg version="1.0" xmlns="http://www.w3.org/2000/svg"
 width="1063.000000pt" height="1063.000000pt" viewBox="0 0 1063.000000 1063.000000"
 preserveAspectRatio="xMidYMid meet">
<metadata>
Created by potrace 1.11, written by Peter Selinger 2001-2013
</metadata>
<g transform="translate(0.000000,1063.000000) scale(0.100000,-0.100000)"
fill="#000000" stroke="none">
<path d="M4916 10413 c-1 -2 -44 -6 -94 -9 -81 -5 -127 -10 -127 -14 0 -1 -31
-3 -70 -5 -38 -2 -83 -7 -100 -9 -16 -3 -48 -8 -70 -11 -22 -4 -51 -8 -65 -11
-59 -10 -96 -16 -124 -19 -17 -2 -31 -4 -31 -5 0 -2 -15 -5 -60 -14 -56 -11
-90 -18 -100 -20 -5 -2 -28 -6 -50 -11 -22 -4 -44 -10 -50 -14 -5 -3 -21 -7
-35 -9 -14 -1 -40 -8 -58 -13 -18 -6 -41 -12 -50 -14 -9 -2 -17 -4 -17 -5 0
-1 -8 -3 -17 -5 -23 -4 -91 -26 -103 -34 -5 -3 -19 -7 -30 -9 -37 -7 -40 -8
-73 -24 -19 -10 -29 -12 -25 -5 5 9 2 8 -8 0 -9 -7 -24 -14 -35 -16 -10 -2
-32 -10 -49 -17 -16 -7 -36 -14 -43 -16 -8 -1 -21 -6 -30 -10 -9 -4 -23 -8
-30 -10 -8 -1 -28 -9 -45 -17 -18 -9 -44 -19 -59 -22 -16 -4 -25 -12 -21 -18
3 -5 2 -7 -4 -4 -5 3 -20 0 -34 -7 -13 -7 -26 -13 -29 -13 -25 -7 -71 -28
-240 -111 -107 -53 -222 -112 -255 -132 -33 -20 -76 -44 -96 -53 -20 -9 -42
-23 -49 -32 -7 -8 -16 -15 -21 -15 -4 0 -56 -33 -115 -72 -59 -40 -115 -78
-125 -84 -11 -6 -27 -18 -37 -27 -10 -10 -23 -17 -28 -17 -6 0 -23 -13 -39
-30 -16 -16 -34 -30 -40 -30 -6 0 -24 -13 -40 -30 -16 -16 -33 -30 -39 -30 -6
0 -27 -16 -47 -36 -20 -20 -48 -42 -61 -48 -12 -7 -22 -18 -20 -24 1 -7 -2
-11 -7 -10 -5 2 -25 -12 -44 -29 -20 -18 -40 -33 -44 -33 -11 0 -469 -465
-513 -520 -19 -24 -34 -47 -33 -52 2 -4 -2 -7 -8 -5 -6 1 -16 -7 -22 -17 -7
-11 -25 -35 -42 -53 -16 -19 -36 -43 -45 -54 -8 -11 -30 -39 -47 -61 -18 -22
-33 -43 -33 -47 0 -3 -10 -17 -23 -31 -25 -28 -54 -71 -55 -83 -1 -4 -8 -15
-17 -23 -17 -18 -145 -210 -145 -218 0 -4 -16 -29 -35 -56 -19 -27 -34 -51
-33 -52 1 -2 -11 -22 -25 -45 -15 -24 -27 -47 -27 -52 0 -5 -7 -14 -15 -21 -8
-7 -13 -16 -10 -20 3 -4 -2 -13 -10 -20 -8 -7 -13 -16 -10 -20 3 -5 0 -12 -5
-15 -11 -7 -35 -59 -28 -61 2 -1 -4 -10 -13 -20 -14 -17 -30 -50 -30 -64 0 -3
-6 -12 -13 -20 -12 -14 -27 -48 -27 -60 0 -3 -8 -13 -17 -24 -9 -10 -16 -21
-16 -25 2 -8 -7 -30 -38 -101 -25 -56 -52 -121 -54 -130 -2 -10 -24 -66 -32
-80 -5 -8 -8 -23 -6 -33 1 -9 -2 -15 -7 -11 -5 3 -10 -2 -10 -10 -2 -24 -4
-30 -10 -41 -18 -29 -59 -176 -53 -186 4 -8 3 -9 -4 -5 -7 4 -12 1 -13 -6 -1
-22 -7 -49 -15 -66 -4 -9 -8 -24 -8 -32 -1 -8 -4 -20 -8 -26 -4 -6 -9 -21 -12
-35 -2 -13 -12 -51 -20 -84 -9 -33 -19 -73 -22 -89 -3 -16 -7 -33 -10 -37 -3
-5 -7 -27 -9 -49 -2 -22 -7 -44 -9 -49 -3 -5 -8 -26 -11 -47 -4 -22 -9 -48
-12 -59 -3 -11 -7 -31 -8 -45 -2 -14 -6 -41 -10 -60 -4 -19 -8 -46 -10 -60 -1
-14 -6 -50 -10 -80 -5 -30 -9 -75 -11 -100 -1 -25 -3 -45 -4 -45 -4 0 -10 -49
-15 -130 -3 -49 -7 -119 -10 -155 -8 -90 -8 -420 -1 -505 3 -38 8 -112 11
-164 4 -52 8 -99 11 -103 3 -5 7 -36 9 -71 2 -34 6 -78 9 -98 4 -20 8 -51 10
-70 2 -19 7 -45 10 -59 4 -14 8 -41 10 -61 2 -19 6 -44 9 -55 3 -10 8 -36 12
-58 3 -21 8 -43 12 -49 3 -5 7 -26 8 -46 2 -20 8 -48 14 -63 6 -16 9 -28 6
-28 -2 0 2 -18 10 -40 8 -22 12 -40 10 -40 -2 0 2 -18 10 -40 8 -22 12 -40 10
-40 -2 0 2 -18 10 -40 8 -22 12 -40 8 -40 -3 0 -1 -6 5 -13 6 -7 14 -28 17
-47 3 -18 9 -38 13 -44 3 -6 7 -17 8 -24 2 -8 6 -21 10 -30 4 -9 8 -23 10 -30
1 -8 6 -21 10 -30 4 -9 9 -26 11 -36 2 -11 8 -25 14 -33 6 -7 9 -13 5 -13 -4
0 0 -14 9 -30 9 -17 13 -30 9 -30 -4 0 -2 -6 3 -12 6 -7 16 -31 23 -52 7 -22
22 -60 33 -85 12 -25 22 -48 23 -51 9 -34 28 -70 36 -70 5 0 7 -4 4 -8 -3 -5
1 -20 9 -35 8 -15 11 -27 8 -27 -3 0 2 -9 13 -21 10 -12 18 -24 17 -28 -3 -9
107 -232 125 -253 8 -10 12 -18 9 -18 -6 0 31 -62 53 -87 6 -7 8 -13 4 -13 -4
0 1 -9 11 -20 10 -11 15 -20 11 -20 -3 0 10 -22 29 -50 19 -27 35 -53 35 -58
0 -5 8 -17 18 -28 10 -10 19 -23 21 -29 5 -18 114 -179 140 -208 13 -15 21
-27 17 -27 -5 0 6 -16 23 -35 17 -20 31 -39 31 -43 0 -4 16 -24 36 -45 19 -20
32 -37 28 -37 -5 0 8 -17 27 -37 19 -21 51 -58 71 -83 20 -25 52 -62 72 -83
20 -20 34 -37 31 -37 -3 0 3 -9 12 -19 9 -11 21 -17 26 -14 6 3 7 1 4 -4 -8
-13 27 -46 38 -36 4 5 5 3 2 -3 -8 -13 306 -327 317 -317 4 4 6 2 4 -6 -1 -8
7 -20 19 -26 13 -7 20 -15 16 -18 -3 -4 -1 -7 6 -7 14 0 47 -30 34 -31 -4 0
-1 -3 8 -7 16 -7 59 -42 153 -124 24 -21 47 -38 51 -38 4 0 25 -15 45 -32 38
-33 74 -60 115 -88 12 -8 41 -28 65 -45 82 -58 155 -105 175 -114 12 -5 27
-16 34 -25 7 -9 19 -16 26 -16 7 0 18 -7 25 -15 15 -18 76 -48 96 -48 7 0 12
-4 11 -9 -1 -4 9 -14 23 -22 67 -38 466 -236 475 -236 6 0 40 -15 77 -34 38
-19 65 -30 62 -25 -3 5 9 1 28 -8 18 -10 58 -27 88 -37 30 -11 66 -24 80 -29
14 -6 28 -11 33 -12 4 -2 9 -4 12 -5 3 -1 10 -4 15 -5 6 -1 11 -3 13 -4 1 -2
13 -4 26 -7 14 -2 30 -9 38 -15 7 -6 13 -9 13 -6 0 3 26 -3 57 -14 32 -11 63
-17 71 -14 7 2 10 0 7 -5 -3 -6 1 -11 9 -11 17 -2 35 -5 39 -8 1 -2 13 -5 27
-8 31 -6 41 -8 60 -16 20 -7 99 -26 130 -31 14 -3 25 -5 25 -6 0 -1 9 -3 20
-5 11 -2 36 -7 55 -11 19 -4 42 -8 50 -10 8 -2 31 -6 50 -10 19 -4 40 -8 47
-10 6 -1 30 -5 53 -8 23 -3 45 -8 49 -10 4 -3 31 -6 60 -7 28 -2 54 -7 57 -11
3 -5 13 -3 22 4 12 10 14 10 8 1 -5 -10 4 -13 36 -14 24 0 52 -3 63 -5 26 -6
118 -13 221 -18 45 -2 86 -6 92 -10 6 -3 14 -2 17 4 5 8 11 8 20 0 10 -8 15
-8 20 0 4 7 11 8 18 1 15 -12 368 -12 384 1 7 6 14 5 18 -2 3 -6 11 -7 17 -4
6 4 49 8 97 10 47 2 109 6 136 8 99 9 170 17 195 22 14 2 43 7 65 10 39 5 77
10 140 20 17 3 37 8 45 11 8 3 31 7 50 9 19 2 42 6 50 8 8 1 33 6 55 11 22 4
46 13 54 19 12 9 13 8 6 -4 -8 -13 -7 -13 8 -1 9 7 17 11 17 7 0 -3 11 -1 26
4 14 6 39 13 57 16 43 8 62 12 65 14 1 2 5 3 10 4 24 5 110 29 127 36 11 4 40
13 65 20 25 7 51 17 59 24 12 9 13 8 6 -4 -7 -12 -6 -13 6 -4 8 6 32 17 54 24
22 7 46 18 54 24 11 8 13 8 8 -1 -4 -7 6 -5 25 5 18 9 39 17 46 18 8 2 28 9
45 17 18 9 44 19 59 22 17 4 25 12 21 19 -3 6 -3 8 1 4 9 -8 80 16 143 48 26
13 51 20 56 17 6 -3 7 -2 4 4 -4 6 11 15 31 21 47 14 133 57 127 64 -3 3 1 5
9 5 14 0 138 60 191 94 17 10 49 27 72 39 23 11 45 24 48 30 3 6 25 19 49 30
23 10 49 26 56 35 7 8 17 15 22 15 6 0 30 13 55 30 24 16 49 30 54 30 6 0 8 4
5 8 -3 5 11 15 30 22 19 8 42 22 51 32 9 10 22 18 30 18 8 0 11 5 8 10 -3 6
-1 10 5 10 12 0 40 20 104 73 19 15 39 27 45 27 7 0 9 5 6 10 -3 6 -1 10 4 10
14 0 118 79 150 114 14 14 29 26 34 26 5 0 36 26 68 57 33 31 72 66 87 77 37
28 279 270 326 326 21 25 60 69 88 98 27 28 47 52 43 52 -3 0 12 19 33 43 52
56 134 157 127 157 -3 0 8 15 24 33 16 17 42 50 57 72 14 22 32 43 38 47 6 4
7 8 2 8 -6 0 2 12 15 27 27 30 56 73 57 86 0 4 14 23 31 42 16 18 32 43 36 54
3 12 11 21 17 21 6 0 9 3 6 6 -4 3 5 22 18 41 13 19 21 39 18 44 -3 5 0 8 7 7
7 -2 14 2 14 7 1 11 29 60 62 111 12 19 20 34 16 34 -3 0 2 9 12 20 10 11 15
20 10 20 -4 0 -2 7 5 15 19 22 81 145 73 145 -3 0 1 8 9 18 14 16 23 34 27 57
2 6 10 18 18 28 9 9 12 17 8 17 -4 0 -1 8 8 18 8 9 16 20 16 25 1 6 10 29 44
107 5 14 11 27 12 30 2 7 24 61 32 80 3 8 7 17 8 20 2 6 23 59 32 80 3 8 8 24
10 34 2 11 8 25 14 33 6 7 9 13 5 13 -4 0 0 13 9 30 9 16 13 30 10 30 -3 0 1
14 10 30 9 17 13 30 10 30 -3 0 -1 9 5 21 7 11 14 33 16 47 3 15 10 32 16 39
6 7 8 13 5 13 -4 0 0 18 8 40 8 22 12 40 10 40 -2 0 2 18 10 40 8 22 14 41 14
43 0 1 2 9 5 17 3 8 10 42 17 75 15 69 13 60 24 105 5 19 9 42 10 50 1 8 5 31
10 50 5 19 9 42 10 50 1 8 4 29 8 45 4 17 9 46 12 65 3 19 8 49 11 65 3 17 7
53 9 80 2 28 4 50 5 50 4 0 10 45 14 95 2 30 8 87 12 125 11 89 11 749 1 835
-5 35 -10 96 -13 134 -3 39 -8 73 -12 76 -4 3 -7 21 -7 40 0 19 -3 58 -7 85
-4 28 -11 70 -14 95 -3 25 -9 49 -12 54 -3 5 -6 23 -7 40 -1 17 -4 40 -8 51
-3 11 -8 38 -12 59 -3 22 -9 44 -13 50 -5 6 -8 18 -7 26 1 8 -3 26 -7 39 -5
13 -11 40 -14 60 -3 20 -10 38 -15 39 -5 2 -7 8 -3 13 3 5 0 25 -6 43 -6 19
-13 47 -16 62 -3 15 -8 32 -12 38 -4 6 -7 18 -7 26 0 8 -3 20 -7 26 -4 6 -9
23 -12 39 -3 16 -9 31 -13 34 -5 3 -8 13 -8 21 1 8 -3 23 -8 33 -4 10 -10 28
-12 39 -3 12 -8 24 -13 27 -4 3 -7 13 -7 21 1 8 -2 20 -7 26 -4 6 -9 19 -11
30 -1 10 -7 26 -12 34 -5 8 -10 21 -11 28 -2 8 -6 21 -10 30 -4 9 -8 19 -9 22
-2 7 -24 62 -32 80 -3 8 -7 17 -8 20 0 3 -11 27 -23 54 -12 27 -22 53 -22 58
0 5 -4 7 -9 4 -5 -4 -8 2 -6 11 1 10 -3 25 -11 33 -7 8 -13 20 -13 25 -2 16
-133 278 -149 298 -8 9 -11 17 -7 17 4 0 0 9 -11 21 -10 12 -17 23 -15 26 1 3
-6 16 -18 29 -11 13 -18 24 -14 24 3 0 -1 8 -10 18 -8 9 -15 19 -15 22 1 3
-12 25 -27 50 -16 25 -29 48 -30 52 0 3 -10 18 -22 31 -12 14 -19 27 -17 30 2
2 -5 12 -16 22 -11 10 -20 23 -20 29 0 6 -11 23 -24 38 -14 14 -23 28 -20 30
2 3 -5 13 -16 23 -11 10 -20 23 -20 30 0 7 -9 20 -21 31 -12 10 -28 31 -35 47
-8 15 -19 25 -25 22 -5 -4 -8 -3 -7 2 3 12 -45 83 -86 126 -20 20 -33 37 -29
37 4 0 -9 17 -29 38 -19 20 -39 44 -44 53 -5 9 -48 58 -96 109 -49 51 -88 97
-88 102 0 4 -7 8 -16 8 -8 0 -13 4 -10 9 8 12 -29 43 -39 34 -4 -5 -5 -3 -2 3
8 14 -26 47 -38 37 -4 -5 -5 -3 -2 3 8 14 -26 47 -38 37 -4 -5 -5 -3 -2 3 8
14 -26 47 -37 37 -4 -5 -6 -2 -4 6 2 8 -8 20 -22 28 -14 7 -21 13 -17 13 9 0
-18 30 -27 30 -4 0 -43 36 -89 80 -45 44 -87 80 -92 80 -6 0 -29 18 -50 40
-21 22 -44 40 -50 40 -5 1 -28 19 -50 40 -22 22 -45 40 -51 40 -6 0 -21 11
-34 25 -13 14 -25 23 -28 21 -3 -4 -40 25 -78 62 -7 6 -15 12 -18 12 -3 0 -26
15 -52 33 -60 42 -80 55 -149 97 -31 19 -69 43 -84 52 -45 29 -68 42 -128 72
-32 16 -67 37 -78 47 -11 9 -29 19 -40 21 -11 1 -29 11 -39 21 -19 16 -39 22
-61 17 -5 -1 -7 2 -2 6 9 9 -64 45 -77 37 -5 -4 -6 -2 -3 3 3 6 -9 16 -26 23
-60 26 -102 44 -162 71 -33 15 -71 31 -85 35 -14 4 -29 11 -35 15 -5 4 -28 13
-50 20 -22 7 -45 16 -51 21 -6 5 -19 10 -30 12 -10 1 -23 5 -29 8 -10 7 -257
89 -278 93 -7 2 -19 5 -27 9 -8 3 -37 10 -65 17 -27 7 -57 14 -65 17 -23 9
-42 13 -72 16 -15 2 -31 6 -34 10 -4 4 -18 7 -30 7 -13 0 -25 4 -28 8 -2 4
-17 9 -33 10 -29 3 -68 9 -68 12 0 2 -25 6 -70 14 -16 2 -30 5 -30 6 0 3 -40
9 -85 13 -25 3 -52 7 -60 11 -8 3 -33 8 -55 11 -22 2 -62 7 -90 10 -27 3 -68
8 -90 10 -22 2 -40 4 -40 5 0 2 -10 3 -160 15 -84 7 -633 14 -639 8z"/>
</g>
</svg>
